<svg xmlns="http://www.w3.org/2000/svg" width="204.767" height="31" viewBox="0 0 204.767 31"><g transform="translate(8 -13.22)"><path d="M13.308,11.489a15.08,15.08,0,0,1,2.923.288,8.324,8.324,0,0,1,2.386.778.691.691,0,0,1,.3.288.821.821,0,0,1,.119.4l.328,3.026q0,.086-.149.115-.149,0-.179-.086-1.074-4.207-6.89-4.207a8.434,8.434,0,0,0-4.116.98,6.783,6.783,0,0,0-2.744,2.709A8.176,8.176,0,0,0,4.3,19.846,10.535,10.535,0,0,0,5.522,24.86a9.924,9.924,0,0,0,3.251,3.631,7.863,7.863,0,0,0,4.385,1.326,6.367,6.367,0,0,0,3.788-1.124A6.416,6.416,0,0,0,19.3,25.263q0-.086.119-.086a.342.342,0,0,1,.149.029q.089.029.089.086l-.418,3.083a1.14,1.14,0,0,1-.149.461.832.832,0,0,1-.328.2,14.462,14.462,0,0,1-5.7,1.124A11.745,11.745,0,0,1,7.1,28.779a9.036,9.036,0,0,1-3.52-3.573A9.84,9.84,0,0,1,2.45,20.624a7.745,7.745,0,0,1,1.521-4.7A10.039,10.039,0,0,1,8,12.67,12.3,12.3,0,0,1,13.308,11.489ZM31.859,30.162a9.833,9.833,0,0,1-4.952-1.239,8.99,8.99,0,0,1-3.341-3.4,9.755,9.755,0,0,1-1.163-4.7,8.308,8.308,0,0,1,1.551-5.072,9.629,9.629,0,0,1,3.967-3.2A12.356,12.356,0,0,1,32.9,11.489a9.448,9.448,0,0,1,4.981,1.3,8.613,8.613,0,0,1,3.281,3.372,9.092,9.092,0,0,1,1.163,4.467A8.615,8.615,0,0,1,40.9,25.436a10.125,10.125,0,0,1-3.848,3.458A10.89,10.89,0,0,1,31.859,30.162Zm1.074-.576a7.686,7.686,0,0,0,3.818-.951,6.756,6.756,0,0,0,2.685-2.8,9.244,9.244,0,0,0,.984-4.409,10.2,10.2,0,0,0-1.1-4.812A7.874,7.874,0,0,0,36.244,13.3a8.754,8.754,0,0,0-4.594-1.181,7.027,7.027,0,0,0-5.4,2.075,7.943,7.943,0,0,0-1.939,5.648,11.282,11.282,0,0,0,1.074,4.928,8.819,8.819,0,0,0,3.072,3.516A7.951,7.951,0,0,0,32.933,29.586Zm31.7-17.78q.089,0,.089.173t-.089.173a2.334,2.334,0,0,0-1.82.605,3.267,3.267,0,0,0-.507,2.075v15.3c0,.038-.05.067-.149.086a.232.232,0,0,1-.209-.029L48.463,14.169l-.507-.548v13.2a3.268,3.268,0,0,0,.507,2.075,2.255,2.255,0,0,0,1.76.576q.089,0,.089.173t-.089.173q-.716,0-1.1-.029l-1.432-.029-1.462.029q-.388.029-1.163.029-.06,0-.06-.173t.06-.173a2.2,2.2,0,0,0,1.76-.576,3.347,3.347,0,0,0,.477-2.075v-13.8a3.344,3.344,0,0,0-2.148-.865q-.089,0-.089-.173t.089-.173l1.074.029q.328.029.925.029.507,0,.835-.029t.507-.029a.453.453,0,0,1,.328.115,1.082,1.082,0,0,1,.328.4,8.974,8.974,0,0,0,.716.98L61.647,27.453V14.831a3.426,3.426,0,0,0-.477-2.075,2.1,2.1,0,0,0-1.73-.605q-.06,0-.06-.173t.06-.173l1.133.029q.9.058,1.432.058.506,0,1.462-.058Zm14.783,13.8q0-.086.179-.058.179,0,.179.086a25.583,25.583,0,0,0-.268,3.746.461.461,0,0,1-.119.346.532.532,0,0,1-.358.086H66.706c-.04,0-.06-.058-.06-.173s.02-.173.06-.173a7.2,7.2,0,0,0,1.7-.144,1.025,1.025,0,0,0,.746-.548,3.107,3.107,0,0,0,.209-1.3V14.14a2.9,2.9,0,0,0-.209-1.268,1.025,1.025,0,0,0-.746-.548,6.04,6.04,0,0,0-1.7-.173c-.04,0-.06-.058-.06-.173s.02-.173.06-.173H78.518a.233.233,0,0,1,.268.259l.06,3.487q0,.086-.179.086c-.1,0-.149-.029-.149-.086a3.288,3.288,0,0,0-.805-2.334,2.759,2.759,0,0,0-2.118-.865H73.537a7.021,7.021,0,0,0-1.67.144,1.108,1.108,0,0,0-.746.548,3.328,3.328,0,0,0-.179,1.268v5.85h3.937a3.136,3.136,0,0,0,1.909-.432,1.957,1.957,0,0,0,.537-1.556q0-.058.179-.058t.179.058l-.03,2.277q0,.836.03,1.239l.03,1.354q0,.058-.179.058t-.179-.058a2.389,2.389,0,0,0-.567-1.815,2.971,2.971,0,0,0-2-.519H70.942v6.657a3.227,3.227,0,0,0,.179,1.239,1.121,1.121,0,0,0,.716.519,7.2,7.2,0,0,0,1.7.144h2.744a2.546,2.546,0,0,0,2.028-1.009A5.1,5.1,0,0,0,79.413,25.609ZM100.18,29.47c.04,0,.06.058.06.173s-.02.173-.06.173q-.776,0-1.223-.029l-1.581-.029-2.237.029q-.537.029-1.462.029c-.04,0-.06-.058-.06-.173s.02-.173.06-.173a5.007,5.007,0,0,0,1.283-.115q.387-.115.388-.4a1.158,1.158,0,0,0-.268-.605l-4.623-6.772-4.146,5.591a2.589,2.589,0,0,0-.6,1.354q0,.951,1.82.951.089,0,.089.173t-.089.173q-.895,0-1.342-.029l-2-.029-1.223.029q-.328.029-1.074.029-.089,0-.089-.173t.089-.173a3.762,3.762,0,0,0,1.969-.576,7.229,7.229,0,0,0,1.82-1.729l4.5-5.965-4.8-7a5.3,5.3,0,0,0-1.551-1.585,3.554,3.554,0,0,0-1.849-.461c-.04,0-.06-.058-.06-.173s.02-.173.06-.173q.358,0,1.133.058l1.074.029q.955,0,2.386-.058l1.551-.029q.089,0,.089.173t-.089.173a4.046,4.046,0,0,0-1.283.144q-.387.115-.388.4a1.3,1.3,0,0,0,.268.605l4.534,6.57,3.788-5.158a3.126,3.126,0,0,0,.716-1.585q0-.98-1.73-.98-.089,0-.089-.173t.089-.173l1.342.029q1.134.058,2,.058.507,0,1.223-.058l1.074-.029q.089,0,.089.173t-.089.173q-2.029,0-4,2.594l-4.176,5.5,4.952,7.175a5.061,5.061,0,0,0,1.581,1.614A4.662,4.662,0,0,0,100.18,29.47Zm21.307,0c.079,0,.119.058.119.173s-.04.173-.119.173q-.537,0-1.73-.058-1.134-.058-1.67-.058-.626,0-1.641.058-.955.058-1.432.058c-.079,0-.119-.058-.119-.173s.04-.173.119-.173a5.475,5.475,0,0,0,1.76-.2.778.778,0,0,0,.537-.749,2.97,2.97,0,0,0-.328-1.124l-3.55-7.348h-5.7l-2.685,6.224a4.335,4.335,0,0,0-.418,1.614,1.268,1.268,0,0,0,.716,1.21,5.053,5.053,0,0,0,2.237.375c.1,0,.149.058.149.173s-.05.173-.149.173q-.537,0-1.551-.058-1.134-.058-1.969-.058-.745,0-1.76.058-.895.058-1.462.058c-.1,0-.149-.058-.149-.173s.05-.173.149-.173a3.073,3.073,0,0,0,1.4-.288,2.918,2.918,0,0,0,1.1-1.037,11.776,11.776,0,0,0,1.133-2.132l6.234-14.495a.2.2,0,0,1,.179-.086q.149,0,.179.086L118,25.868a16.166,16.166,0,0,0,1.223,2.248,3.946,3.946,0,0,0,1.044,1.066A2.545,2.545,0,0,0,121.487,29.47ZM107.974,19.5h5.22l-2.774-5.706Zm5.19-10.922a1.417,1.417,0,0,0,.805-.2,2.94,2.94,0,0,0,.656-.576h.06a.177.177,0,0,1,.149.086.07.07,0,0,1,0,.115,6.687,6.687,0,0,1-1.283,1.326,1.946,1.946,0,0,1-1.044.317,5.184,5.184,0,0,1-.925-.086q-.477-.115-.954-.259a8.078,8.078,0,0,0-2.058-.346,1.371,1.371,0,0,0-.746.173,2.5,2.5,0,0,0-.447.346l-.268.259h-.03a.328.328,0,0,1-.179-.058q-.06-.086,0-.144a6.3,6.3,0,0,1,1.133-1.153,2.27,2.27,0,0,1,1.372-.519,5.985,5.985,0,0,1,1.551.317A7.775,7.775,0,0,0,113.165,8.578Zm19.016,21.584a9.834,9.834,0,0,1-4.952-1.239,8.993,8.993,0,0,1-3.341-3.4,9.755,9.755,0,0,1-1.163-4.7,8.31,8.31,0,0,1,1.551-5.072,9.631,9.631,0,0,1,3.967-3.2,12.358,12.358,0,0,1,4.981-1.066,9.447,9.447,0,0,1,4.981,1.3,8.61,8.61,0,0,1,3.281,3.372,9.092,9.092,0,0,1,1.163,4.467,8.615,8.615,0,0,1-1.432,4.812,10.125,10.125,0,0,1-3.848,3.458A10.888,10.888,0,0,1,132.181,30.162Zm1.074-.576a7.685,7.685,0,0,0,3.818-.951,6.756,6.756,0,0,0,2.685-2.8,9.243,9.243,0,0,0,.984-4.409,10.2,10.2,0,0,0-1.1-4.812,7.871,7.871,0,0,0-3.072-3.314,8.753,8.753,0,0,0-4.594-1.181,7.028,7.028,0,0,0-5.4,2.075,7.945,7.945,0,0,0-1.939,5.648,11.282,11.282,0,0,0,1.074,4.928,8.822,8.822,0,0,0,3.072,3.516A7.951,7.951,0,0,0,133.255,29.586Zm38.538-.115c.08,0,.119.058.119.173s-.039.173-.119.173q-.537,0-1.73-.058-1.133-.058-1.67-.058-.626,0-1.641.058-.954.058-1.432.058c-.079,0-.119-.058-.119-.173s.04-.173.119-.173a5.475,5.475,0,0,0,1.76-.2.778.778,0,0,0,.537-.749,2.97,2.97,0,0,0-.328-1.124l-3.55-7.348h-5.7l-2.685,6.224a4.347,4.347,0,0,0-.418,1.614,1.268,1.268,0,0,0,.716,1.21,5.053,5.053,0,0,0,2.237.375c.1,0,.149.058.149.173s-.049.173-.149.173q-.537,0-1.551-.058-1.133-.058-1.969-.058-.745,0-1.76.058-.895.058-1.462.058c-.1,0-.149-.058-.149-.173s.05-.173.149-.173a3.071,3.071,0,0,0,1.4-.288,2.914,2.914,0,0,0,1.1-1.037,11.74,11.74,0,0,0,1.133-2.132l6.234-14.495a.2.2,0,0,1,.179-.086q.149,0,.179.086l6.92,14.351a16.168,16.168,0,0,0,1.223,2.248,3.954,3.954,0,0,0,1.044,1.066A2.547,2.547,0,0,0,171.793,29.47ZM158.281,19.5h5.22l-2.774-5.706Zm29.942-7.694c.039,0,.06.058.06.173s-.02.173-.06.173a3.84,3.84,0,0,0-2.148.692,6.506,6.506,0,0,0-1.879,1.9l-4.206,6.167v6.57a3.431,3.431,0,0,0,.179,1.3,1.008,1.008,0,0,0,.716.548,7.372,7.372,0,0,0,1.73.144q.089,0,.089.173t-.089.173q-.895,0-1.4-.029l-2.028-.029-2.028.029q-.537.029-1.432.029-.089,0-.089-.173t.089-.173a7.2,7.2,0,0,0,1.7-.144,1.125,1.125,0,0,0,.776-.548,3.107,3.107,0,0,0,.209-1.3V21.344l-5.1-7.147a5.506,5.506,0,0,0-1.521-1.585,3.458,3.458,0,0,0-1.849-.461q-.089,0-.089-.173t.089-.173l1.1.029q.716.058,1.074.058.984,0,2.416-.058l1.551-.029c.039,0,.06.058.06.173s-.02.173-.06.173a4.352,4.352,0,0,0-1.312.144q-.388.115-.388.4a1.4,1.4,0,0,0,.3.605l5.011,6.945,3.818-5.591a3.424,3.424,0,0,0,.656-1.585q0-.922-1.611-.922c-.04,0-.06-.058-.06-.173s.02-.173.06-.173l1.342.029q1.133.058,2,.058.506,0,1.223-.058ZM207.1,29.47c.079,0,.119.058.119.173s-.04.173-.119.173q-.537,0-1.73-.058-1.134-.058-1.67-.058-.626,0-1.641.058-.955.058-1.432.058c-.079,0-.119-.058-.119-.173s.04-.173.119-.173a5.475,5.475,0,0,0,1.76-.2.778.778,0,0,0,.537-.749,2.97,2.97,0,0,0-.328-1.124l-3.55-7.348h-5.7l-2.685,6.224a4.335,4.335,0,0,0-.418,1.614,1.268,1.268,0,0,0,.716,1.21,5.053,5.053,0,0,0,2.237.375c.1,0,.149.058.149.173s-.05.173-.149.173q-.537,0-1.551-.058-1.134-.058-1.969-.058-.745,0-1.76.058-.895.058-1.462.058c-.1,0-.149-.058-.149-.173s.05-.173.149-.173a3.073,3.073,0,0,0,1.4-.288,2.918,2.918,0,0,0,1.1-1.037,11.776,11.776,0,0,0,1.133-2.132l6.234-14.495a.2.2,0,0,1,.179-.086q.149,0,.179.086l6.92,14.351a16.164,16.164,0,0,0,1.223,2.248,3.945,3.945,0,0,0,1.044,1.066A2.545,2.545,0,0,0,207.1,29.47ZM193.586,19.5h5.22l-2.774-5.706Z" transform="translate(-10.45 5.42)" fill="#03311a" opacity="0.8"/><path d="M137.9,53.4H7.122v.006H137.9Z" transform="translate(-1.353 -9.186)" fill="#03311a" opacity="0.8"/></g></svg>