<svg width="89" height="89" viewBox="0 0 89 89" fill="none" xmlns="http://www.w3.org/2000/svg">
<path d="M44.559 87.473C68.1719 87.473 87.3139 68.331 87.3139 44.7181C87.3139 21.1053 68.1719 1.96324 44.559 1.96324C20.9461 1.96324 1.80409 21.1053 1.80409 44.7181C1.80409 68.331 20.9461 87.473 44.559 87.473Z" stroke="#898A89" stroke-opacity="0.5" stroke-width="2"/>
<path d="M48.8627 68.0588H8.72549V69.8039H48.8627V68.0588Z" fill="#898A89" fill-opacity="0.5"/>
<path d="M36.4591 15.4002C38.8731 15.4002 41.3122 15.6264 43.7767 16.0787C46.2411 16.531 48.2024 17.1844 49.661 18.0387C50.1136 18.2398 50.3902 18.4659 50.4907 18.7172C50.6417 18.9183 50.7422 19.2952 50.7925 19.848L51.6223 28.2915C51.6223 28.4423 51.4966 28.5428 51.2452 28.5931C50.9937 28.5931 50.8427 28.5177 50.7925 28.3669C49.6861 24.497 47.6241 21.6574 44.6065 19.848C41.6393 17.9885 37.9426 17.0587 33.5169 17.0587C29.6948 17.0587 26.3503 17.9131 23.4836 19.6219C20.6168 21.2804 18.404 23.6426 16.8449 26.7084C15.2858 29.7742 14.5062 33.3174 14.5062 37.3381C14.5062 42.0122 15.4618 46.3344 17.3729 50.3049C19.3343 54.2753 21.9497 57.4165 25.2186 59.7284C28.5379 62.0403 32.1088 63.1963 35.9311 63.1963C39.5521 63.1963 42.6954 62.2162 45.3609 60.2561C48.0263 58.2458 50.0632 55.18 51.4715 51.0588C51.4715 50.908 51.572 50.8326 51.7732 50.8326C51.9242 50.8326 52.0498 50.8577 52.1503 50.908C52.3013 50.9583 52.3767 51.0336 52.3767 51.1342L51.3205 59.653C51.22 60.2561 51.0942 60.6582 50.9434 60.8592C50.8427 61.01 50.5661 61.1859 50.1136 61.387C45.5872 63.2968 40.8095 64.2517 35.7801 64.2517C29.745 64.2517 24.6905 63.0455 20.6168 60.6331C16.5934 58.1704 13.6261 55.0544 11.715 51.2849C9.80386 47.5155 8.8483 43.5451 8.8483 39.3736C8.8483 34.7498 10.1308 30.6034 12.6957 26.9345C15.2606 23.2656 18.6555 20.426 22.88 18.4157C27.1045 16.4054 31.631 15.4002 36.4591 15.4002Z" fill="#898A89"/>
<path d="M47.5433 56.007L41.0688 49.5323V38.8394H51.6708L59.2789 46.4421M52.5093 61.3583L59.2789 68.1225H70.2243V60.5196L64.4325 52.5711M70.2243 56.007L82.0053 44.2349V35.136H73.6847L59.2789 49.5323V58.6557L64.4325 59.3424" stroke="#008844"/>
</svg>
